<svg clip-rule="evenodd" fill-rule="evenodd" height="1518" image-rendering="optimizeQuality" shape-rendering="geometricPrecision" text-rendering="geometricPrecision" viewBox="14776.73 7794.99 6006.55 6000.01" width="2500" xmlns="http://www.w3.org/2000/svg" xmlns:xlink="http://www.w3.org/1999/xlink"><linearGradient id="a" gradientUnits="userSpaceOnUse" x1="18020.18" x2="17455.86" y1="11379.69" y2="10428.03"><stop offset="0" stop-color="#e1282b"/><stop offset=".388" stop-color="#e3402a"/><stop offset=".702" stop-color="#e76226"/><stop offset="1" stop-color="#f19a0a"/></linearGradient><linearGradient id="b" gradientUnits="userSpaceOnUse" x1="17008.34" x2="16551.51" y1="10848.8" y2="9719.12"><stop offset="0" stop-color="#cb1918"/><stop offset=".388" stop-color="#a2183d"/><stop offset=".749" stop-color="#902869"/><stop offset="1" stop-color="#73358a"/></linearGradient><linearGradient id="c" gradientUnits="userSpaceOnUse" x1="17642.57" x2="17185.74" xlink:href="#b" y1="10592.32" y2="9462.64"/><linearGradient id="d" gradientUnits="userSpaceOnUse" x1="17239.16" x2="16782.34" xlink:href="#b" y1="10755.45" y2="9625.78"/><linearGradient id="e" gradientUnits="userSpaceOnUse" x1="18116.12" x2="17551.8" xlink:href="#a" y1="11322.8" y2="10371.14"/><linearGradient id="f" gradientUnits="userSpaceOnUse" x1="17604.83" x2="17040.51" xlink:href="#a" y1="11625.99" y2="10674.32"/><linearGradient id="g" gradientUnits="userSpaceOnUse" x1="18080.08" x2="17515.76" xlink:href="#a" y1="11344.17" y2="10392.51"/><linearGradient id="h" gradientUnits="userSpaceOnUse" x1="17709.11" x2="17144.79" xlink:href="#a" y1="11564.15" y2="10612.49"/><linearGradient id="i" gradientUnits="userSpaceOnUse" x1="18550.95" x2="17888.02" y1="9925.03" y2="10649.15"><stop offset="0" stop-color="#add816"/><stop offset="1" stop-color="#dbd704"/></linearGradient><linearGradient id="j" gradientUnits="userSpaceOnUse" x1="17096.54" x2="18953.66" y1="8034.97" y2="8091.25"><stop offset="0" stop-color="#0288f7"/><stop offset="1" stop-color="#2ee2bd"/></linearGradient><g fill-rule="nonzero"><path d="m16402.73 9217.36c-51.51-23.39-96.1-41.53-132.4-55.18-7.69-57.22-13.19-114.55-16.75-172.05-2.76-47.34-1.06-94.08 4.62-140.05 30.9 5.08 74.72 12.77 129.29 23.35-5.36 65.05-5.86 133.6 0 206.02 3.7 46.25 8.75 92.26 15.24 137.91zm509.01 300.54c-130.21-95.49-252.45-169.58-358.67-226.3-21.52-132.36-30.76-263.49-22.61-388.34 98.25 21.7 214.31 49.67 342.09 85.2-8.5 166.93 7.2 346.49 39.19 529.44zm1336.87 69.65c-1.23 14.43-2.93 29.03-4.48 43.64-177.87 92.88-354.82 218.01-513.93 386.82-51.5 54.57-98.39 109.29-141.28 163.86-48.09-60.85-99.49-122.52-154.03-184.47-24.44-27.69-48.89-54.57-73.62-80.71-40.89-273.83-66.92-544.06-71.69-797.28 316.55 112.4 658.32 264.9 959.03 468.14z" fill="#2ac64b"/><path d="m16441.59 8607.33c-26.6 80.72-45.97 169.41-54.08 266.1-54.58-10.58-98.39-18.27-129.3-23.35 3.5-28.89 8.61-57.5 15.21-85.62 38.73-41.7 94.86-96.87 168.17-157.13z" fill="#008a5a"/><path d="m17061.02 8258.36c-93.63 171.73-168.67 403.08-187.58 711.94-.31 6-.6 12.14-.91 18.13-127.78-35.52-243.84-63.46-342.06-85.16.15-4.16.46-8.15.74-12.31 12.18-161.89 59.98-310.37 132.23-442.28 111.76-69.03 244.12-136.06 397.58-190.32z" fill="#009550"/><path d="m18248.61 9587.55c-300.71-203.24-642.48-355.74-959.03-468.14-6.1-301.62 17.4-578.94 79.8-808.64 1.7-6.31 3.39-12.59 5.26-18.76 251.04 148.37 578.17 313.79 888.72 386.5 27.06 273.79 18.91 584.94-14.75 909.04z" fill="#00983e"/><path d="m19314.59 8990.13c-7.69 127.43-25.82 253.51-54.11 379.56-35.85 1.37-77.05 3.7-122.84 7.69 20.14-97.16 34.92-196.6 43.04-297.92 27.23-340.82-82.87-600.5-210.29-781.76 37.36 10.62 72.71 21.06 105.76 31.22 143.12 181.4 253.51 414.45 238.44 661.21zm-318.22 403.7c-99.77 14.29-212.34 36.58-331.15 70.55 27.23-171.09 39.05-338.2 29.49-494.1-21.66-355.56-117.9-608.33-231.18-785.88 106.51 17.53 207.51 38.28 300.68 60.11 148.69 175.58 253.82 394.62 272.73 646.47 11.99 160.48-5.22 331.61-40.57 502.85z" fill="#009a37"/><path d="m18263.35 8678.51c-310.55-72.71-637.68-238.13-888.71-386.5 13.23-45.94 28.08-87.78 44.38-125.73 46-7.84 93.34-14.29 142.09-19.23 196.15-19.97 392.01-18.13 578.49-2.79 21.98 48.61 42.12 103.79 59.2 166.51 30.41 112.08 51.64 235.52 64.55 367.74z" fill="#00863f"/><path d="m16922.63 7978.7c-10.3 6.32-343.89 211.71-481.05 628.62-73.31 60.25-129.43 115.46-168.13 157.13 90.66-393.28 452.72-714.56 649.18-785.75zm211.08 162.2c-25.05 35.67-49.49 74.72-72.71 117.48-153.42 54.25-285.78 121.28-397.54 190.32 85.48-156.85 205.53-290.41 340.96-396.35 32.14 22.9 76.09 53.34 129.29 88.55z" fill="#06cbf6"/><path d="m19076.16 8328.92c-33.06-10.16-68.41-20.61-105.77-31.22-150.53-214.28-325.15-319.16-325.15-319.16 115.89 41.84 289.45 170.99 430.92 350.38zm-311.96-84.41c-93.17-21.84-194.17-42.58-300.67-60.11-191.1-300.08-431.09-385.27-442.77-389.26 257.35 51.51 540.84 210.15 743.44 449.37zm-624.59-100.23c-186.48-15.39-382.34-17.22-578.49 2.78-48.75 4.91-96.1 11.36-142.1 19.23 137.76-324.84 361.92-371.3 361.92-371.3h6.31s214 44.27 352.36 349.29zm-592.18-349.13c-11.08 3.84-228.18 80.86-413.74 345.76-53.16-35.21-97.12-65.65-129.29-88.55 169.26-132.22 362.55-221.09 543.03-257.21z" fill="url(#j)"/><path d="m17784.07 12010.09h230.37l85.23-371.9h-631.16l85.23 371.9z" fill="#666565"/></g><path d="m16914.01 10345.29c44.31 91.65 86.58 173.43 122.98 241.69 62.44 116.84 121.78 216.11 182.99 306.53 17.67-61.95 39.76-127.28 67.31-194.95-47.52-108.97-95.18-225.99-140.48-347.91-98.56-264.86-186.05-552.94-235.05-832.76-130.21-95.46-252.45-169.55-358.71-226.27 60.89 376.66 220.91 764.5 360.96 1053.67z" fill="url(#d)"/><path d="m16705.88 10340.53c25.08 43.81 51.18 87.91 78.24 132.36 126.51 207.4 272.59 398.96 402.63 554.53 3.84-18.91 8.32-38.31 13.26-58.1-52.63-72.28-103.96-145.77-148.1-213.89-63.32-97.44-154.94-238.72-250.4-412.61-163.58-298.24-338.2-692.39-398.78-1125.46-51.5-23.39-96.09-41.49-132.39-55.18 52.28 388.34 200.76 769.41 435.54 1178.35z" fill="url(#b)"/><path d="m17384.16 10061.2c16.44 98.07 35.67 197.7 56.41 296.09 2.01 9.38 3.99 18.73 6 28.11 41.48-67.17 88.72-135.29 142.34-203.51a4546.283 4546.283 0 0 0 -154.02-184.51c-24.41-27.66-48.89-54.54-73.62-80.68 7.19 48.12 14.71 96.24 22.89 144.5z" fill="url(#c)"/><path d="m19137.64 9377.38c-58.6 284.55-161.83 548.13-271.58 773.5 22.17 22.29 43.85 44.52 64.81 66.5 156.42-290.77 267.59-568.97 329.61-847.7-35.84 1.42-77.05 3.67-122.84 7.7zm-472.4 87.03c-21.46 135.86-52.48 274.2-89.88 411.36 64.66 58.33 135.42 123.67 204.93 190.72 86.95-207.66 168.24-440.37 216.1-672.68-99.8 14.33-212.34 36.62-331.15 70.6z" fill="#97cc1a"/><path d="m17730.2 10017.98c-51.5 54.58-98.39 109.33-141.29 163.91 187.08 236.43 326.25 461.18 426.94 649.18 36.61-141.4 74.57-297.92 108.51-458.26 22.01-103.47 42.3-208.32 59.65-311.61 24.31-144.22 44.6-288.25 60.12-430-177.87 92.85-354.79 218.02-513.93 386.78zm1135.86 132.9c-4.2 8.63-8.41 17.2-12.63 25.71-124.14 250.58-254.7 451.8-337.17 578.84-95.18 146.55-223.38 318.28-325.01 449.69 3.7 9.7 7.23 18.76 10.61 27.37 157.38-171.41 392.01-447.67 582.19-759.6 47.7-78.29 92.38-155.46 133.96-231.74 4.33-7.94 8.6-15.85 12.86-23.77-20.96-21.98-42.64-44.21-64.81-66.5zm-290.7-275.11-4.93 17.89c-120.58 435.45-304.25 857.34-449.6 1148.05 15.84 34.57 30.13 66.75 42.76 96.24 134.23-159.74 244.86-321.49 367.59-550.97 67.42-126.35 154.82-298.55 238.13-494.49l10.98-26c-69.51-67.05-140.27-132.39-204.93-190.72z" fill="url(#i)"/><path d="m17905.28 11420.66c98.11-101.63 182.07-191.87 258.31-282.71-12.63-29.49-26.92-61.67-42.76-96.24-102.97 206.02-186.94 346.18-215.55 378.95z" fill="url(#g)"/><path d="m18025.69 11414.67c5.22-5.08 74.72-71.93 176.17-182.18-3.38-8.61-6.91-17.67-10.61-27.37-90.84 117.65-160.2 203.09-165.56 209.55z" fill="url(#e)"/><path d="m17446.57 10385.4c115.92 542.22 274.85 1039.57 274.85 1039.57h125.34s80.68-252.59 169.09-593.9c-100.69-188-239.86-412.75-426.94-649.18-53.62 68.22-100.86 136.34-142.34 203.51z" fill="url(#a)"/><path d="m17219.98 10893.51c126.68 188.17 260.24 337.78 442.91 527.15-42.58-48.71-207.4-335.13-375.6-722.1-27.55 67.67-49.64 133-67.31 194.95z" fill="url(#h)"/><path d="m17186.75 11027.42c191.24 228.89 347.91 379.56 355.88 387.25-8.43-10.44-181.05-222.61-342.62-445.35-4.94 19.79-9.42 39.19-13.26 58.1z" fill="url(#f)"/></svg>